<svg xmlns:dc="http://purl.org/dc/elements/1.1/" xmlns:cc="http://creativecommons.org/ns#" xmlns:rdf="http://www.w3.org/1999/02/22-rdf-syntax-ns#" xmlns:svg="http://www.w3.org/2000/svg" xmlns="http://www.w3.org/2000/svg" xmlns:sodipodi="http://sodipodi.sourceforge.net/DTD/sodipodi-0.dtd" xmlns:inkscape="http://www.inkscape.org/namespaces/inkscape" viewBox="0 0 12.7 15.875" version="1.1" x="0px" y="0px"><g transform="translate(0,-284.29999)"><path style="" d="m 8.1957949,287.53874 h 0.2695165 v -1.52983 H 4.2346891 v 1.52983 h 0.2695853 v -1.26025 h 3.6915205 z" fill="#000000" stroke="none"/><path style="" d="m 2.3127993,291.05482 -0.033393,-0.45854 a 0.26957997,0.26957997 0 0 1 0.2688869,-0.28916 H 3.56391 a 0.26957997,0.26957997 0 0 1 0.2688153,0.28916 l -0.033393,0.45854 h 5.1013329 l -0.033393,-0.45854 a 0.26957997,0.26957997 0 0 1 0.2688154,-0.28916 h 1.0156194 a 0.26957997,0.26957997 0 0 1 0.268884,0.28916 l -0.03339,0.45854 h 1.514047 a 0.26957997,0.26957997 0 0 0 0.269586,-0.26958 v -2.53506 A 0.26957997,0.26957997 0 0 0 11.901248,287.9806 H 0.79875226 a 0.26957997,0.26957997 0 0 0 -0.26958531,0.26958 v 2.53506 a 0.26957997,0.26957997 0 0 0 0.26958531,0.26958 z" fill="#000000" stroke="none"/><path style="" d="m 9.2427753,292.31066 h 0.8023157 a 0.26957997,0.26957997 0 0 0 0.268884,-0.25 l 0.05362,-0.73627 h 1.001758 a 0.26957997,0.26957997 0 0 1 0.269586,0.26959 v 3.4275 a 0.26957997,0.26957997 0 0 1 -0.269586,0.26958 H 1.3306416 a 0.26957997,0.26957997 0 0 1 -0.2695853,-0.26958 v -3.4275 a 0.26957997,0.26957997 0 0 1 0.2695853,-0.26959 h 1.001758 l 0.053623,0.73627 a 0.26957997,0.26957997 0 0 0 0.2688869,0.25 h 0.8023848 a 0.26957997,0.26957997 0 0 0 0.2688154,-0.25 l 0.053623,-0.73627 H 8.920266 l 0.053623,0.73627 a 0.26957997,0.26957997 0 0 0 0.2688863,0.25 z" fill="#000000" stroke="none"/></g><text x="0" y="27.7" fill="#000000" font-size="5px" font-weight="bold" font-family="'Helvetica Neue', Helvetica, Arial-Unicode, Arial, Sans-serif">Created by Phạm Thanh Lộc</text><text x="0" y="32.7" fill="#000000" font-size="5px" font-weight="bold" font-family="'Helvetica Neue', Helvetica, Arial-Unicode, Arial, Sans-serif">from the Noun Project</text></svg>