<?xml version="1.0" standalone="no"?>
<!DOCTYPE svg PUBLIC "-//W3C//DTD SVG 20010904//EN"
 "http://www.w3.org/TR/2001/REC-SVG-20010904/DTD/svg10.dtd">
<svg version="1.0" xmlns="http://www.w3.org/2000/svg"
 width="937.000000pt" height="360.000000pt" viewBox="0 0 937.000000 360.000000"
 preserveAspectRatio="xMidYMid meet">

<g transform="translate(0.000000,360.000000) scale(0.100000,-0.100000)"
fill="#000000" stroke="none">
<path d="M0 1800 l0 -1800 4685 0 4685 0 0 1800 0 1800 -4685 0 -4685 0 0
-1800z m7557 1375 c-4 -8 -12 -15 -19 -14 -10 0 -10 2 0 6 6 2 12 12 12 21 0
8 3 13 6 9 4 -3 4 -13 1 -22z m-132 -13 c-3 -3 -11 0 -18 7 -9 10 -8 11 6 5
10 -3 15 -9 12 -12z m-44 -15 c-10 -9 -11 -8 -5 6 3 10 9 15 12 12 3 -3 0 -11
-7 -18z m224 2 c4 -6 1 -10 -6 -8 -8 1 -21 1 -29 0 -12 -1 -11 -4 3 -12 13 -8
22 -8 29 -1 13 13 48 -2 48 -20 0 -6 -6 -5 -17 3 -15 12 -16 12 -10 -3 7 -20
-8 -25 -17 -5 -3 6 -3 -1 0 -18 7 -36 22 -47 45 -34 10 5 25 6 34 3 10 -4 21
-1 25 7 7 11 13 10 29 -5 14 -13 31 -17 56 -14 19 2 35 0 35 -5 0 -5 7 -3 16
4 14 11 19 10 35 -10 11 -13 19 -27 19 -32 0 -14 -18 -11 -23 4 -4 8 -6 7 -6
-4 -1 -8 4 -20 11 -27 9 -9 8 -12 -6 -12 -10 0 -16 -5 -13 -12 2 -7 10 -12 16
-11 6 2 11 -2 11 -7 0 -5 -5 -10 -11 -10 -5 0 -7 -4 -4 -10 12 -19 25 -10 25
17 0 35 12 22 15 -16 2 -21 -1 -28 -11 -24 -8 3 -14 1 -14 -5 0 -5 10 -9 23
-8 15 1 21 7 19 18 -2 15 1 16 28 6 28 -9 31 -14 28 -47 -2 -27 1 -36 12 -36
8 0 18 -4 22 -10 5 -7 14 -6 28 3 11 6 24 12 30 12 16 0 12 -18 -5 -23 -11 -4
-10 -4 2 -3 11 1 19 11 21 25 2 14 0 21 -7 17 -6 -4 -8 2 -6 15 5 26 13 35 22
25 4 -4 1 -11 -7 -16 -11 -7 -12 -10 -2 -10 13 0 42 23 42 34 0 3 -7 6 -16 6
-8 0 -12 5 -9 10 4 6 10 8 15 5 4 -3 10 0 12 7 5 15 28 1 28 -18 0 -8 -4 -12
-10 -9 -6 4 -7 -1 -3 -10 3 -10 0 -21 -8 -26 -10 -6 -8 -9 9 -9 22 0 22 -1 -9
-40 -33 -41 -53 -50 -62 -27 -3 6 -6 2 -6 -11 -1 -16 3 -21 12 -16 6 4 3 -4
-9 -17 -11 -13 -66 -77 -122 -141 -56 -64 -102 -118 -102 -120 0 -2 62 -4 138
-6 89 -1 138 -6 141 -13 2 -8 6 -8 11 1 4 6 17 10 29 8 21 -3 21 -5 -12 -40
-19 -21 -40 -46 -48 -57 -70 -98 -162 -221 -181 -241 -13 -14 -59 -72 -102
-130 -44 -58 -108 -142 -143 -187 l-64 -82 110 -3 111 -3 -656 -655 c-403
-403 -647 -640 -633 -615 68 121 91 155 109 155 10 0 22 5 26 12 5 8 0 9 -15
5 -28 -7 -25 1 36 106 26 44 49 74 55 70 7 -3 8 -1 4 5 -11 17 85 184 99 172
7 -6 11 -3 11 10 0 10 -3 17 -7 14 -5 -3 40 85 71 136 16 28 104 185 127 229
13 24 35 64 48 88 l25 44 -195 -2 c-108 -1 -197 0 -200 2 -2 3 52 92 119 199
118 187 354 561 368 584 4 7 -8 12 -33 13 -29 1 -39 -3 -39 -14 0 -13 -3 -13
-15 -3 -19 16 -30 7 -20 -17 16 -36 15 -53 -1 -53 -11 0 -15 6 -11 20 3 11 0
31 -6 45 -12 24 -14 24 -130 22 -64 -1 -117 0 -116 3 0 3 14 25 29 50 16 25
43 70 60 100 16 30 67 118 113 195 73 124 86 140 107 137 23 -2 23 -1 7 10
-17 13 -17 16 5 56 13 23 27 42 31 42 5 0 5 -4 2 -10 -3 -5 -1 -10 5 -10 7 0
9 8 5 20 -6 20 48 130 63 130 16 -1 42 -28 42 -43 0 -11 5 -14 16 -10 12 4 13
8 3 14 -10 6 -10 11 2 26 12 16 12 17 -2 6 -19 -15 -33 -5 -18 13 6 7 18 10
27 7 10 -3 13 -1 7 4 -13 11 -17 63 -4 63 5 0 9 -6 9 -13 0 -20 41 -36 68 -26
12 5 22 13 22 19 0 6 -4 8 -10 5 -5 -3 -10 -2 -10 4 0 5 5 13 10 16 6 3 10 2
10 -4 0 -6 8 -7 18 -4 13 5 15 4 7 -8 -5 -8 -2 -6 8 5 12 13 16 28 12 45 -5
21 -4 23 10 11 9 -7 13 -21 10 -31 -5 -14 -1 -16 15 -12 15 4 19 2 15 -10 -4
-8 1 -17 9 -20 12 -5 13 -2 6 18 -5 14 -6 25 -2 25 4 0 -1 5 -10 11 -30 17
-21 30 24 38 4 0 10 -4 13 -10z m35 1 c0 -5 -4 -10 -10 -10 -5 0 -10 5 -10 10
0 6 5 10 10 10 6 0 10 -4 10 -10z m-217 -21 c-8 -8 -13 -7 -18 2 -5 8 -4 10 3
5 7 -4 12 -2 12 5 0 7 3 9 7 6 4 -4 2 -12 -4 -18z m37 17 c0 -3 -4 -8 -10 -11
-5 -3 -10 -1 -10 4 0 6 5 11 10 11 6 0 10 -2 10 -4z m215 -5 c-3 -5 -1 -12 5
-16 5 -3 10 -1 10 6 0 7 3 10 6 6 4 -3 4 -14 0 -23 -6 -16 -8 -16 -20 2 -13
17 -13 34 0 34 3 0 3 -4 -1 -9z m155 -11 c0 -6 -8 -14 -17 -17 -10 -4 -26 -16
-35 -28 -10 -11 -17 -15 -18 -8 0 6 5 15 10 18 16 10 12 28 -5 22 -8 -4 -17
-1 -21 5 -5 7 4 9 30 4 23 -4 36 -3 36 4 0 5 5 10 10 10 6 0 10 -5 10 -10z
m-479 -38 c-7 -13 -7 -22 1 -30 9 -9 9 -12 1 -12 -20 0 -24 17 -12 44 7 14 14
24 16 22 3 -2 0 -13 -6 -24z m379 0 c0 -15 -2 -15 -10 -2 -13 20 -13 33 0 25
6 -3 10 -14 10 -23z m-327 -3 c-4 -15 -8 -17 -14 -8 -8 14 -3 29 11 29 4 0 6
-9 3 -21z m41 -28 c-9 -11 -21 13 -16 32 6 22 6 22 12 -3 4 -14 6 -27 4 -29z
m426 15 c0 -11 -19 -15 -25 -6 -3 5 1 10 9 10 9 0 16 -2 16 -4z m107 -38 c-3
-7 -5 -2 -5 12 0 14 2 19 5 13 2 -7 2 -19 0 -25z m-64 -4 c-6 -17 -23 -9 -23
11 0 8 6 12 14 9 8 -3 12 -12 9 -20z m112 6 c3 -5 1 -10 -4 -10 -6 0 -11 5
-11 10 0 6 2 10 4 10 3 0 8 -4 11 -10z m-690 -10 c3 -5 -1 -10 -9 -10 -9 0
-16 5 -16 10 0 6 4 10 9 10 6 0 13 -4 16 -10z m637 -40 c6 0 7 7 4 16 -3 8 -2
12 4 9 6 -3 10 -11 10 -16 0 -27 46 -44 63 -24 5 6 7 4 4 -5 -2 -9 -16 -15
-33 -15 -17 0 -28 -5 -26 -13 1 -7 -3 -12 -9 -12 -7 0 -9 10 -6 25 3 17 0 24
-7 22 -6 -2 -10 -11 -8 -21 2 -9 -2 -16 -9 -16 -6 0 -9 -7 -5 -15 11 -30 -2
-14 -22 25 -15 31 -16 40 -6 40 8 0 14 5 14 11 0 5 -5 7 -11 4 -6 -4 -5 2 3
14 13 21 13 21 21 -4 5 -14 13 -25 19 -25z m69 20 c-22 -19 -41 -19 -41 0 0 4
9 6 20 3 11 -3 20 0 20 6 0 6 6 11 13 11 6 -1 1 -9 -12 -20z m67 -28 c-11 -13
-10 -15 5 -9 22 8 35 -19 17 -36 -10 -10 -12 -8 -7 6 4 11 3 16 -3 12 -6 -4
-17 0 -25 9 -10 9 -11 17 -5 21 6 4 8 11 5 16 -3 5 1 6 10 3 13 -5 13 -9 3
-22z m84 -48 c18 -6 22 -54 5 -54 -4 0 -6 -4 -2 -9 3 -5 0 -13 -6 -17 -9 -5
-10 0 -6 17 4 15 0 30 -10 41 -9 10 -12 18 -7 18 5 0 2 5 -6 11 -13 9 -13 10
0 5 8 -3 23 -9 32 -12z m-117 -34 c4 0 3 5 0 10 -3 6 -1 10 4 10 13 0 13 0 0
-39 -11 -32 -23 -39 -34 -21 -3 6 -1 10 5 10 6 0 8 5 5 10 -4 6 -10 8 -14 6
-4 -3 -8 5 -8 17 -3 29 20 42 29 17 4 -11 10 -20 13 -20z m-2040 -180 c-3 -5
-12 -10 -18 -10 -7 0 -6 4 3 10 19 12 23 12 15 0z m490 -70 c3 -5 1 -10 -4
-10 -6 0 -11 5 -11 10 0 6 2 10 4 10 3 0 8 -4 11 -10z m-435 -34 c0 -3 -4 -8
-10 -11 -5 -3 -10 -1 -10 4 0 6 5 11 10 11 6 0 10 -2 10 -4z m-75 -16 c3 -5
-1 -10 -10 -10 -9 0 -13 5 -10 10 3 6 8 10 10 10 2 0 7 -4 10 -10z m38 -16
c-8 -20 -22 -17 -20 5 0 10 7 17 13 14 7 -3 10 -11 7 -19z m220 -3 c-4 -16 -8
-19 -14 -10 -4 7 -3 19 3 26 14 18 19 12 11 -16z m-363 5 c0 -2 -7 -7 -16 -10
-8 -3 -12 -2 -9 4 6 10 25 14 25 6z m102 -29 c-2 -12 2 -15 15 -11 13 4 15 3
5 -4 -11 -7 -8 -14 13 -30 25 -20 27 -20 44 -4 10 9 16 21 13 26 -3 5 0 6 6 2
18 -11 14 -41 -8 -61 -15 -14 -19 -15 -15 -4 4 10 -1 15 -14 16 -13 1 -18 -3
-14 -13 6 -16 -32 -20 -42 -4 -3 6 1 7 10 4 13 -5 14 -2 5 21 -6 15 -20 41
-32 57 -20 28 -20 30 -2 26 11 -2 18 -11 16 -21z m168 19 c0 -3 -4 -8 -10 -11
-5 -3 -10 -1 -10 4 0 6 5 11 10 11 6 0 10 -2 10 -4z m-76 -14 c3 -5 -1 -9 -9
-9 -8 0 -12 4 -9 9 3 4 7 8 9 8 2 0 6 -4 9 -8z m-218 -15 c8 3 14 1 14 -5 0
-5 -11 -12 -24 -14 -19 -4 -22 -1 -18 16 3 11 7 15 9 9 3 -7 11 -9 19 -6z
m-270 -33 c-11 -8 -25 -14 -30 -13 -6 0 -1 5 12 11 12 6 22 16 22 21 0 6 3 7
7 3 5 -4 -1 -14 -11 -22z m321 20 c-3 -3 -12 -4 -19 -1 -8 3 -5 6 6 6 11 1 17
-2 13 -5z m353 -4 c13 -8 13 -10 -2 -10 -9 0 -20 5 -23 10 -8 13 5 13 25 0z
m-620 -6 c0 -8 -19 -13 -24 -6 -3 5 1 9 9 9 8 0 15 -2 15 -3z m177 -31 c-3 -3
-13 1 -21 10 -8 8 -12 17 -9 20 3 3 12 -1 20 -9 9 -8 13 -18 10 -21z m107 22
c-4 -8 -11 -15 -16 -15 -6 0 -5 6 2 15 7 8 14 15 16 15 2 0 1 -7 -2 -15z m36
5 c0 -5 -5 -10 -11 -10 -5 0 -7 5 -4 10 3 6 8 10 11 10 2 0 4 -4 4 -10z m-280
-20 c0 -5 -2 -10 -4 -10 -3 0 -8 5 -11 10 -3 6 -1 10 4 10 6 0 11 -4 11 -10z
m190 7 c0 -2 -10 -12 -21 -23 -22 -19 -22 -19 -8 4 12 19 29 30 29 19z m290
-18 c0 -6 -4 -7 -10 -4 -5 3 -10 11 -10 16 0 6 5 7 10 4 6 -3 10 -11 10 -16z
m370 1 c0 -5 -5 -10 -11 -10 -5 0 -7 5 -4 10 3 6 8 10 11 10 2 0 4 -4 4 -10z
m-990 -19 c0 -11 -6 -22 -12 -24 -7 -3 -4 -6 7 -6 16 -1 17 -3 5 -11 -12 -8
-12 -10 3 -16 9 -3 17 -11 17 -18 0 -6 -12 2 -25 17 -21 23 -26 25 -31 13 -3
-9 -10 -16 -16 -16 -5 0 0 12 11 26 12 15 21 33 21 40 0 8 5 14 10 14 6 0 10
-9 10 -19z m430 -28 c0 -7 -4 -13 -10 -13 -5 0 -7 6 -4 14 3 8 1 17 -5 21 -6
3 -11 11 -11 18 0 15 29 -25 30 -40z m-470 27 c0 -5 -4 -10 -10 -10 -5 0 -10
5 -10 10 0 6 5 10 10 10 6 0 10 -4 10 -10z m237 -16 c2 -13 1 -15 -4 -4 -3 8
-11 19 -17 23 -7 6 -6 7 4 4 8 -2 16 -12 17 -23z m189 12 c18 -18 18 -23 -1
-23 -8 0 -15 5 -15 10 0 5 -7 3 -17 -4 -15 -13 -15 -12 -2 9 16 26 16 26 35 8z
m251 -19 c-6 -15 -15 -27 -19 -27 -12 0 -10 8 8 36 21 31 28 26 11 -9z m-777
3 c6 -11 8 -20 6 -20 -3 0 -10 9 -16 20 -6 11 -8 20 -6 20 3 0 10 -9 16 -20z
m260 5 c0 -12 -19 -12 -23 0 -4 9 -1 12 9 8 7 -3 14 -7 14 -8z m466 0 c-3 -8
-2 -15 3 -15 14 0 20 -54 8 -62 -6 -4 -17 -2 -24 4 -9 7 -13 7 -13 -1 0 -7 -5
-9 -11 -6 -6 4 -8 14 -4 22 4 13 3 14 -10 3 -8 -7 -15 -8 -15 -4 0 5 9 15 21
22 12 8 18 9 14 3 -3 -6 -4 -11 -1 -11 2 0 12 -3 21 -7 15 -5 16 -3 6 15 -10
19 -6 52 6 52 3 0 3 -7 -1 -15z m34 11 c0 -3 -4 -8 -10 -11 -5 -3 -10 -1 -10
4 0 6 5 11 10 11 6 0 10 -2 10 -4z m104 -12 c5 -14 4 -15 -8 -5 -11 9 -15 8
-19 -3 -3 -8 -3 -17 1 -21 3 -3 5 -23 4 -43 -2 -28 0 -33 7 -22 8 12 11 8 11
-17 0 -17 5 -35 10 -38 6 -3 10 -14 10 -23 -1 -16 -2 -16 -13 -1 -12 16 -14
15 -34 -1 -30 -24 -40 -68 -18 -76 10 -4 21 -1 26 7 5 8 9 10 9 4 0 -21 -17
-35 -33 -29 -18 6 -20 -1 -20 -58 l0 -27 -28 22 c-33 24 -36 29 -12 20 12 -5
15 -2 10 10 -4 11 -1 17 9 17 8 0 12 5 9 10 -4 6 -12 8 -18 4 -7 -3 -3 2 7 10
11 9 17 17 13 17 -4 1 -11 2 -16 3 -5 0 -13 4 -17 9 -9 9 -54 -32 -54 -50 0
-7 4 -13 8 -13 4 0 8 -10 9 -21 2 -26 1 -25 -27 26 -14 25 -18 41 -11 43 6 2
9 8 5 13 -3 5 0 9 5 9 6 0 11 7 11 16 0 8 -4 13 -8 10 -5 -3 -9 1 -9 9 0 10 4
12 12 5 7 -5 15 -6 20 -2 4 4 4 -3 1 -15 -8 -24 9 -41 18 -18 3 8 10 15 16 15
6 0 8 -4 5 -10 -3 -5 -1 -10 4 -10 18 0 12 22 -7 27 -23 6 -45 40 -35 56 4 6
8 20 8 30 2 25 26 39 43 25 10 -9 12 -5 7 20 -4 25 -1 34 16 43 20 10 21 9 14
-7 -12 -29 -11 -57 1 -61 6 -2 14 4 18 13 4 12 2 15 -9 10 -8 -3 -15 -2 -15 3
0 5 10 12 23 16 13 4 17 8 10 12 -26 10 -13 48 18 52 4 1 10 -6 13 -15z m237
-7 c-8 -8 -14 -7 -23 2 -11 10 -9 11 6 5 15 -6 17 -4 11 6 -6 9 -4 11 4 5 9
-5 10 -10 2 -18z m74 13 c3 -5 2 -10 -4 -10 -5 0 -13 5 -16 10 -3 6 -2 10 4
10 5 0 13 -4 16 -10z m190 0 c3 -5 1 -10 -4 -10 -6 0 -11 5 -11 10 0 6 2 10 4
10 3 0 8 -4 11 -10z m-445 -10 c0 -5 -8 -10 -17 -10 -15 0 -16 2 -3 10 19 12
20 12 20 0z m-605 -10 c3 -5 -1 -10 -9 -10 -9 0 -16 5 -16 10 0 6 4 10 9 10 6
0 13 -4 16 -10z m129 -5 c3 -8 1 -15 -4 -15 -6 0 -10 7 -10 15 0 8 2 15 4 15
2 0 6 -7 10 -15z m206 8 c0 -1 -8 -7 -18 -12 -13 -7 -19 -6 -19 2 0 7 9 13 19
13 10 0 18 -1 18 -3z m-270 -7 c0 -2 -8 -10 -17 -17 -16 -13 -17 -12 -4 4 13
16 21 21 21 13z m872 -18 c-6 -6 -15 -8 -19 -4 -4 4 -1 11 7 16 19 12 27 3 12
-12z m-351 -6 c-7 -2 -18 1 -23 6 -8 8 -4 9 13 5 13 -4 18 -8 10 -11z m-681
-2 c0 -5 -5 -10 -11 -10 -5 0 -7 5 -4 10 3 6 8 10 11 10 2 0 4 -4 4 -10z m317
-5 c0 -8 -4 -12 -9 -9 -4 3 -8 9 -8 15 0 5 4 9 8 9 5 0 9 -7 9 -15z m103 1 c0
-3 -4 -8 -10 -11 -5 -3 -10 -1 -10 4 0 6 5 11 10 11 6 0 10 -2 10 -4z m-706
-14 c3 -5 -1 -9 -9 -9 -8 0 -12 4 -9 9 3 4 7 8 9 8 2 0 6 -4 9 -8z m192 -11
c-1 -9 8 -17 22 -19 12 -2 20 -8 17 -13 -9 -14 -17 -11 -54 20 -33 28 -33 29
-8 29 16 0 24 -6 23 -17z m762 8 c-2 -6 -8 -10 -13 -10 -5 0 -11 4 -13 10 -2
6 4 11 13 11 9 0 15 -5 13 -11z m52 1 c0 -5 -2 -10 -4 -10 -3 0 -8 5 -11 10
-3 6 -1 10 4 10 6 0 11 -4 11 -10z m160 0 c0 -5 -5 -10 -11 -10 -5 0 -7 5 -4
10 3 6 8 10 11 10 2 0 4 -4 4 -10z m105 0 c3 -5 1 -10 -4 -10 -6 0 -11 5 -11
10 0 6 2 10 4 10 3 0 8 -4 11 -10z m-994 -17 c13 -16 12 -17 -3 -4 -10 7 -18
15 -18 17 0 8 8 3 21 -13z m219 5 c0 -4 -4 -8 -9 -8 -6 0 -12 4 -15 8 -3 5 1
9 9 9 8 0 15 -4 15 -9z m134 3 c3 -5 -1 -11 -9 -14 -9 -4 -12 -1 -8 9 6 16 10
17 17 5z m433 3 c-3 -3 -12 -4 -19 -1 -8 3 -5 6 6 6 11 1 17 -2 13 -5z m-677
-21 c0 -6 -5 -15 -10 -18 -8 -5 -7 -11 1 -21 7 -9 8 -14 1 -14 -18 0 -24 20
-12 35 10 12 9 15 -5 15 -9 0 -20 -10 -23 -22 -6 -23 -6 -23 -12 2 -4 14 -6
27 -4 30 5 11 64 5 64 -7z m1025 8 c3 -5 0 -13 -6 -17 -7 -4 -9 -3 -5 4 3 5 0
13 -6 15 -9 4 -10 6 -1 6 6 1 14 -3 18 -8z m-805 -39 c0 -7 -4 -10 -10 -7 -5
3 -10 16 -10 28 0 18 2 19 10 7 5 -8 10 -21 10 -28z m870 28 c0 -5 -5 -10 -11
-10 -5 0 -7 5 -4 10 3 6 8 10 11 10 2 0 4 -4 4 -10z m-916 -17 c3 -7 -1 -13
-10 -13 -10 0 -14 -6 -10 -15 3 -8 1 -15 -4 -15 -6 0 -10 -6 -10 -14 0 -8 -7
-16 -15 -20 -8 -3 -15 -1 -15 4 0 6 5 10 10 10 6 0 10 4 10 10 0 5 -7 7 -15 4
-8 -4 -15 -1 -15 5 0 6 10 11 23 12 l22 0 -22 9 c-13 5 -23 15 -22 22 0 10 2
10 6 1 2 -7 14 -13 25 -13 13 0 18 5 15 13 -3 8 1 14 9 14 7 0 15 -6 18 -14z
m196 7 c0 -5 -7 -10 -15 -10 -8 0 -15 5 -15 10 0 6 7 10 15 10 8 0 15 -4 15
-10z m291 -9 c-5 -9 -10 -22 -12 -29 -3 -8 -11 -2 -21 15 -16 28 -16 28 13 29
23 1 27 -2 20 -15z m309 -1 c-12 -22 -21 -26 -17 -7 2 10 17 26 25 27 1 0 -2
-9 -8 -20z m-1055 1 c3 -5 2 -12 -3 -15 -5 -3 -9 1 -9 9 0 17 3 19 12 6z m125
5 c0 -2 -7 -6 -15 -10 -8 -3 -15 -1 -15 4 0 6 7 10 15 10 8 0 15 -2 15 -4z
m545 -15 c-8 -14 -25 -14 -25 0 0 5 5 7 10 4 6 -3 10 -1 10 6 0 7 3 10 6 6 3
-3 3 -10 -1 -16z m-775 -31 c-7 -4 -9 -13 -5 -20 6 -9 4 -11 -4 -6 -7 5 -10
14 -7 22 3 7 1 16 -5 19 -5 4 -7 11 -4 16 4 5 13 2 22 -7 13 -13 14 -17 3 -24z
m1045 12 c-8 -8 -25 10 -19 20 4 6 9 5 15 -3 4 -7 6 -15 4 -17z m-1078 -22
c-2 -27 -22 -48 -35 -35 -3 3 0 5 7 5 8 0 11 6 7 16 -8 21 2 56 14 49 5 -3 8
-19 7 -35z m586 19 c-4 -15 -8 -17 -14 -8 -8 14 -3 29 11 29 4 0 6 -9 3 -21z
m541 5 c3 -8 2 -12 -4 -9 -6 3 -10 10 -10 16 0 14 7 11 14 -7z m96 12 c0 -3
-4 -8 -10 -11 -5 -3 -10 -1 -10 4 0 6 5 11 10 11 6 0 10 -2 10 -4z m70 -6 c0
-5 -5 -10 -11 -10 -5 0 -7 5 -4 10 3 6 8 10 11 10 2 0 4 -4 4 -10z m-1759 -23
c-10 -9 -11 -8 -5 6 3 10 9 15 12 12 3 -3 0 -11 -7 -18z m882 -5 c15 5 59 -40
47 -47 -4 -3 -6 -15 -2 -27 4 -16 2 -20 -9 -16 -16 6 -66 -29 -56 -38 3 -4 -4
-15 -16 -25 -16 -13 -18 -18 -7 -19 20 0 36 11 43 30 4 10 6 8 6 -7 1 -16 -6
-24 -24 -29 -13 -3 -27 -14 -30 -24 -3 -10 -12 -21 -21 -24 -12 -4 -12 -2 -4
14 8 16 8 20 -4 20 -8 0 -18 5 -22 11 -4 8 0 9 15 4 15 -5 21 -2 21 10 0 8 7
18 15 21 8 4 15 10 15 16 0 5 -5 6 -12 2 -7 -5 -9 0 -6 14 5 19 3 20 -13 12
-15 -9 -17 -8 -12 6 4 12 3 15 -6 10 -7 -5 -10 -2 -9 6 3 12 -29 14 -41 2 -7
-7 21 -34 30 -28 5 3 6 -1 3 -9 -3 -8 2 -17 10 -20 9 -4 16 -12 16 -18 0 -7
-11 0 -24 14 -13 14 -27 23 -30 20 -3 -4 -6 1 -6 10 0 10 -6 17 -13 17 -8 0
-19 12 -26 26 -6 15 -14 24 -17 21 -3 -3 -1 -14 5 -25 8 -15 6 -23 -8 -36 -24
-22 -34 -20 -22 3 8 15 7 20 -5 25 -13 5 -14 9 -5 20 9 11 9 15 -1 19 -7 3 4
6 25 6 31 1 37 -2 37 -19 0 -22 24 -27 36 -8 4 6 3 8 -4 4 -6 -3 -13 -2 -16 3
-10 15 64 2 81 -14 8 -8 19 -15 24 -15 12 0 12 17 -1 23 -6 3 -5 4 2 3 7 -2
12 -11 12 -20 -3 -26 13 -18 21 11 5 21 1 31 -17 45 -13 10 -17 18 -10 18 6 0
13 8 13 18 1 15 2 15 6 -1 3 -10 10 -17 16 -15z m907 19 c0 -5 -7 -11 -14 -14
-10 -4 -13 -1 -9 9 6 15 23 19 23 5z m-1169 -10 c-8 -5 -20 -7 -28 -4 -21 8
-15 13 15 13 20 0 23 -3 13 -9z m684 -1 c3 -5 -1 -10 -10 -10 -9 0 -13 5 -10
10 3 6 8 10 10 10 2 0 7 -4 10 -10z m336 -4 c5 3 9 0 9 -5 0 -6 -7 -11 -15
-11 -8 0 -15 8 -14 18 0 10 3 12 6 4 2 -6 9 -10 14 -6z m-1099 -3 c-12 -2 -20
-9 -17 -14 4 -5 1 -9 -4 -9 -12 0 -14 13 -4 23 3 4 16 6 27 6 19 -2 19 -2 -2
-6z m236 -6 c8 -10 6 -13 -11 -14 -12 0 -16 1 -9 4 6 3 10 9 6 14 -8 14 2 11
14 -4z m-145 -31 c3 -20 -1 -30 -12 -33 -10 -2 -17 -16 -18 -35 -1 -17 -5 -33
-7 -36 -10 -9 -36 20 -29 32 5 7 2 7 -8 -1 -12 -10 -15 -8 -16 8 -2 18 2 20
25 15 15 -4 23 -3 17 1 -5 4 -11 16 -13 26 -2 12 4 17 20 17 l23 1 -23 19 -23
19 30 -2 c24 -2 30 -7 34 -31z m42 24 c3 -6 -1 -7 -9 -4 -18 7 -21 14 -7 14 6
0 13 -4 16 -10z m637 -5 c21 5 22 5 6 -8 -10 -8 -14 -18 -10 -23 4 -5 -3 -1
-14 9 -21 17 -22 17 -27 -5 -9 -31 -16 -19 -10 15 4 21 8 25 19 16 7 -6 23 -8
36 -4z m288 11 c0 -2 -7 -6 -15 -10 -8 -3 -15 -1 -15 4 0 6 7 10 15 10 8 0 15
-2 15 -4z m151 -21 c5 4 9 -2 9 -13 0 -10 -6 -19 -14 -19 -7 0 -13 7 -12 15 2
23 -25 26 -31 4 -7 -30 -29 -35 -29 -7 0 13 5 21 11 18 7 -2 18 3 25 12 12 15
14 15 22 0 5 -8 13 -13 19 -10z m-3121 5 c0 -5 -5 -10 -11 -10 -5 0 -7 5 -4
10 3 6 8 10 11 10 2 0 4 -4 4 -10z m2778 -25 c-3 -3 -9 2 -12 12 -6 14 -5 15
5 6 7 -7 10 -15 7 -18z m145 11 c3 -8 0 -17 -8 -19 -11 -5 -13 6 -6 31 2 6 9
0 14 -12z m75 -3 c-6 -7 -14 -13 -18 -13 -3 0 -7 6 -7 13 0 7 8 13 18 13 13 0
15 -3 7 -13z m184 1 c-12 -8 -20 -20 -17 -25 4 -5 1 -9 -4 -9 -27 0 6 49 34
50 5 0 -1 -7 -13 -16z m200 -14 c-22 -26 -24 -25 -10 5 6 13 15 22 19 19 5 -2
1 -14 -9 -24z m-769 4 c-3 -8 -11 -14 -18 -14 -7 0 -21 -3 -30 -7 -16 -6 -16
-5 -1 13 20 24 58 30 49 8z m667 12 c0 -3 -4 -8 -10 -11 -5 -3 -10 -1 -10 4 0
6 5 11 10 11 6 0 10 -2 10 -4z m-1411 -27 c-8 -16 -13 -18 -19 -9 -6 9 -10 8
-17 -5 -9 -16 -11 -16 -16 -1 -4 10 -3 14 2 11 5 -3 12 -1 16 5 4 6 10 8 15 5
5 -3 11 -1 15 5 12 19 16 10 4 -11z m956 3 c-3 -3 -11 0 -18 7 -9 10 -8 11 6
5 10 -3 15 -9 12 -12z m199 10 c9 -16 15 -62 6 -57 -10 6 -22 -23 -14 -36 3
-5 1 -9 -5 -9 -5 0 -12 10 -14 23 -4 19 -4 18 -6 -6 -1 -25 -3 -26 -21 -15
-24 15 -26 28 -5 28 8 0 15 7 15 15 0 8 6 12 13 9 8 -3 13 4 14 18 1 13 -1 18
-5 13 -8 -12 -49 -12 -60 0 -4 5 0 6 10 2 9 -3 24 1 35 8 21 17 30 18 37 7z
m-1124 -12 c0 -5 -5 -10 -11 -10 -5 0 -7 5 -4 10 3 6 8 10 11 10 2 0 4 -4 4
-10z m824 -5 c-6 -16 -24 -21 -24 -7 0 11 11 22 21 22 5 0 6 -7 3 -15z m585
-30 c-5 -7 0 -11 11 -12 17 -1 18 1 8 23 -15 33 -1 44 21 15 16 -21 19 -22 33
-7 15 14 17 13 27 -14 8 -26 14 -30 36 -26 14 3 23 1 20 -3 -9 -15 -55 -19
-55 -6 0 7 -6 15 -14 18 -9 4 -12 0 -9 -12 3 -11 -2 -21 -11 -24 -10 -4 -13
-13 -9 -23 4 -12 3 -15 -6 -10 -6 4 -18 3 -26 -4 -9 -8 -15 -8 -20 0 -8 12
-35 -5 -35 -22 0 -6 6 -6 14 1 9 8 15 8 18 2 1 -6 15 -12 30 -13 15 -1 30 -8
33 -16 3 -7 10 -10 16 -6 7 4 9 3 6 -3 -4 -6 -18 -8 -32 -6 -14 3 -22 10 -18
16 4 6 0 8 -10 4 -9 -3 -19 -2 -22 3 -4 6 -11 10 -16 10 -6 0 -7 -4 -4 -10 3
-5 1 -18 -4 -27 -9 -16 -10 -14 -11 8 0 15 -7 32 -15 39 -18 15 -20 -1 -3 -18
9 -9 9 -12 0 -12 -7 0 -15 7 -18 15 -5 12 -9 12 -28 0 -13 -8 -25 -13 -28 -10
-2 3 -13 -4 -23 -15 -19 -21 -8 -29 13 -8 16 16 28 2 13 -16 -6 -8 -10 -20 -9
-27 2 -8 -5 -13 -14 -13 -20 2 -24 -11 -8 -21 13 -8 13 -35 -1 -35 -5 0 -8 4
-4 9 3 5 -1 16 -9 24 -11 11 -12 17 -3 26 8 8 7 11 -6 11 -9 0 -17 5 -17 10 0
7 6 7 19 0 13 -7 22 -7 26 0 3 5 -2 10 -13 10 -19 0 -68 57 -57 68 3 4 10 0
15 -8 12 -19 47 -20 68 0 9 9 23 15 29 13 6 -2 15 1 19 8 4 7 3 9 -3 6 -6 -4
-18 4 -27 18 -21 31 -20 34 4 32 14 -1 18 -6 15 -18 -6 -17 13 -30 48 -34 23
-2 22 3 -5 26 -14 11 -17 17 -7 13 21 -7 44 45 34 76 -7 21 -7 22 12 3 11 -10
16 -23 12 -28z m171 20 c0 -8 -2 -15 -4 -15 -2 0 -6 7 -10 15 -3 8 -1 15 4 15
6 0 10 -7 10 -15z m-1090 -9 c0 -7 -10 -16 -22 -20 -32 -8 -38 -7 -38 5 0 6 7
8 16 5 12 -4 15 -2 10 9 -4 10 1 15 14 15 11 0 20 -6 20 -14z m266 -35 c10
-13 11 -21 4 -21 -6 0 -9 -4 -6 -8 3 -5 -2 -9 -10 -9 -10 0 -11 4 -4 11 14 14
13 29 -2 20 -7 -4 -10 -4 -6 0 11 13 -15 35 -29 24 -8 -6 -10 -3 -6 11 5 18 7
19 25 7 11 -8 26 -24 34 -35z m274 39 c0 -5 -5 -10 -11 -10 -5 0 -7 5 -4 10 3
6 8 10 11 10 2 0 4 -4 4 -10z m201 -7 c13 -15 12 -15 -8 -4 -24 12 -29 21 -14
21 5 0 15 -7 22 -17z m115 1 c-4 -9 -1 -24 6 -33 11 -14 11 -14 -3 -4 -9 7
-19 10 -22 6 -4 -3 -7 0 -7 8 0 14 18 39 28 39 2 0 1 -7 -2 -16z m-362 -14
c-6 -6 -15 -5 -24 1 -13 9 -12 10 3 5 9 -3 17 0 17 6 0 6 3 8 7 5 4 -4 2 -12
-3 -17z m292 -15 c-3 -9 -11 -13 -17 -9 -8 5 -8 9 1 14 7 5 9 14 5 21 -6 11
-5 11 5 2 7 -6 10 -19 6 -28z m-883 -7 c-9 -15 -23 -8 -23 12 0 17 2 19 14 8
8 -7 12 -16 9 -20z m454 10 c-3 -8 -6 -5 -6 6 -1 11 2 17 5 13 3 -3 4 -12 1
-19z m323 6 c0 -8 -4 -12 -10 -9 -5 3 -10 10 -10 16 0 5 5 9 10 9 6 0 10 -7
10 -16z m-1172 -6 c-2 -6 -10 -14 -16 -16 -7 -2 -10 2 -6 12 7 18 28 22 22 4z
m899 -14 c-9 -9 -28 6 -21 18 4 6 10 6 17 -1 6 -6 8 -13 4 -17z m323 22 c0 -2
-7 -7 -16 -10 -8 -3 -12 -2 -9 4 6 10 25 14 25 6z m-228 -19 c10 9 18 11 18 5
0 -6 -10 -16 -21 -23 -18 -9 -25 -7 -43 11 l-21 23 24 -16 c23 -15 26 -15 43
0z m-1281 -7 c5 0 9 -4 9 -8 0 -14 -25 -10 -40 7 -13 13 -12 14 4 8 10 -4 22
-7 27 -7z m487 -7 c-18 -21 -17 -69 1 -65 7 1 10 -2 7 -7 -3 -5 -15 -7 -26 -4
-16 4 -19 2 -14 -12 4 -10 1 -20 -6 -25 -7 -4 -12 -20 -12 -34 0 -15 -5 -29
-9 -32 -5 -3 -6 -11 -3 -17 4 -8 2 -7 -7 1 -11 10 -11 15 -2 20 7 4 10 17 6
30 -5 21 -6 21 -19 5 -9 -12 -13 -14 -14 -5 0 7 12 29 26 47 14 19 25 37 25
42 0 4 8 7 17 5 14 -2 13 1 -4 16 -17 15 -19 20 -7 30 7 7 13 9 13 5 0 -4 5
-2 12 5 19 19 33 14 16 -5z m486 5 c-3 -4 -9 -8 -15 -8 -5 0 -9 4 -9 8 0 5 7
9 15 9 8 0 12 -4 9 -9z m567 -5 c13 -15 12 -15 -8 -4 -24 12 -29 21 -14 21 5
0 15 -7 22 -17z m-1213 -23 c-7 -10 -17 -16 -22 -13 -6 4 -5 8 2 11 7 2 12 10
12 18 0 9 4 12 10 9 6 -4 5 -13 -2 -25z m-88 0 c6 -11 9 -20 8 -20 -2 0 -11 9
-21 20 -9 11 -13 20 -7 20 5 0 14 -9 20 -20z m443 -17 c-8 -21 -20 -15 -18 10
4 32 4 33 14 18 5 -8 7 -20 4 -28z m857 -1 c0 -15 2 -15 10 -2 8 12 10 11 10
-7 0 -13 -5 -23 -11 -23 -17 0 -49 20 -49 31 0 6 4 8 9 4 5 -3 12 -1 16 5 6 9
-8 14 -28 11 -5 -1 -6 3 -2 9 9 15 45 -7 45 -28z m-570 24 c0 -2 -8 -10 -17
-17 -16 -13 -17 -12 -4 4 13 16 21 21 21 13z m384 -21 c-4 -10 4 -19 22 -26
41 -16 85 -19 77 -5 -3 6 5 0 18 -13 21 -23 36 -66 17 -55 -4 3 -8 0 -8 -5 0
-6 -5 -11 -11 -11 -8 0 -8 5 1 15 16 19 5 49 -15 41 -8 -3 -15 -1 -15 4 0 15
-21 12 -44 -7 -12 -10 -15 -11 -9 -3 10 11 7 17 -17 31 -18 11 -28 26 -27 38
0 11 5 18 9 15 4 -3 5 -11 2 -19z m136 -6 c0 -18 -33 -5 -36 13 -2 15 1 16 17
8 10 -6 19 -15 19 -21z m321 -16 c-8 -15 -10 -11 -9 15 1 26 3 30 10 18 5 -10
5 -23 -1 -33z m-2196 27 c3 -5 1 -10 -4 -10 -6 0 -11 5 -11 10 0 6 2 10 4 10
3 0 8 -4 11 -10z m441 3 c-15 -4 -16 -7 -5 -13 11 -7 9 -10 -6 -16 -27 -10
-34 -22 -29 -53 3 -25 3 -25 -8 -4 -16 32 14 93 45 92 19 -1 19 -2 3 -6z m664
-18 c14 -19 14 -19 -2 -6 -10 7 -18 18 -18 24 0 6 1 8 3 6 1 -2 9 -13 17 -24z
m707 3 c-3 -8 -6 -5 -6 6 -1 11 2 17 5 13 3 -3 4 -12 1 -19z m-527 -3 c7 -9 8
-15 2 -15 -5 0 -12 7 -16 15 -3 8 -4 15 -2 15 2 0 9 -7 16 -15z m304 -1 c3 -8
2 -12 -4 -9 -6 3 -10 10 -10 16 0 14 7 11 14 -7z m583 -6 c-3 -8 -6 -5 -6 6
-1 11 2 17 5 13 3 -3 4 -12 1 -19z m-1148 -9 c-16 -10 -23 -4 -14 10 3 6 11 8
17 5 6 -4 5 -9 -3 -15z m138 10 c-9 -6 -15 -14 -12 -20 3 -5 -1 -6 -11 -2 -16
6 -15 7 2 20 10 7 23 13 28 13 6 0 3 -5 -7 -11z m-522 -18 c9 -16 -9 -20 -23
-5 -10 12 -10 14 2 14 8 0 17 -4 21 -9z m-145 -16 c0 -8 -2 -15 -4 -15 -2 0
-6 7 -10 15 -3 8 -1 15 4 15 6 0 10 -7 10 -15z m51 -7 c10 -18 8 -24 -7 -35
-16 -12 -13 -18 9 -14 14 2 7 -8 -14 -20 -16 -8 -20 -8 -14 1 4 6 -1 20 -11
32 -18 19 -18 20 0 17 10 -2 21 2 23 9 3 7 1 12 -4 11 -17 -3 -24 1 -18 11 10
16 23 12 36 -12z m49 6 c0 -2 -7 -4 -15 -4 -8 0 -15 4 -15 10 0 5 7 7 15 4 8
-4 15 -8 15 -10z m410 -5 c0 -6 -4 -7 -10 -4 -5 3 -10 11 -10 16 0 6 5 7 10 4
6 -3 10 -11 10 -16z m100 11 c0 -5 -4 -10 -10 -10 -5 0 -10 5 -10 10 0 6 5 10
10 10 6 0 10 -4 10 -10z m440 -22 c0 -12 -6 -9 -26 13 -19 22 -19 22 4 8 12
-8 22 -17 22 -21z m76 20 c4 -7 4 -10 -1 -6 -4 4 -15 2 -24 -5 -14 -11 -14
-10 -2 6 16 20 18 21 27 5z m-641 -36 c-8 -8 -25 10 -19 20 4 6 9 5 15 -3 4
-7 6 -15 4 -17z m719 20 c2 -4 -4 -8 -14 -8 -10 0 -16 4 -14 8 3 4 9 8 14 8 5
0 11 -4 14 -8z m-814 -24 c0 -10 -2 -18 -5 -18 -2 0 -9 8 -14 18 -8 14 -6 19
5 19 7 0 14 -9 14 -19z m500 7 c-7 -9 -15 -13 -19 -10 -3 3 1 10 9 15 21 14
24 12 10 -5z m-335 -33 c-3 -3 -16 5 -28 17 l-22 23 28 -17 c15 -10 25 -20 22
-23z m755 22 c0 -8 -5 -12 -10 -9 -6 4 -8 11 -5 16 9 14 15 11 15 -7z m-1056
-9 c-4 -8 -11 -15 -16 -15 -6 0 -5 6 2 15 7 8 14 15 16 15 2 0 1 -7 -2 -15z
m185 6 c9 -6 10 -11 2 -15 -6 -4 -11 -2 -11 4 0 7 -7 9 -16 6 -8 -3 -12 -2 -9
4 8 12 16 12 34 1z m258 3 c-3 -3 -12 -4 -19 -1 -8 3 -5 6 6 6 11 1 17 -2 13
-5z m566 -9 c-3 -9 -8 -14 -10 -11 -3 3 -2 9 2 15 9 16 15 13 8 -4z m363 -26
c-8 -19 -15 -28 -15 -21 -1 6 -9 12 -18 12 -14 0 -14 3 -5 12 10 10 15 10 23
-2 9 -13 10 -13 6 1 -3 9 0 22 6 28 18 18 19 6 3 -30z m-1421 1 c3 -6 -1 -7
-9 -4 -18 7 -21 14 -7 14 6 0 13 -4 16 -10z m88 -29 c3 -13 -3 -22 -19 -30
-19 -8 -22 -7 -17 4 3 8 9 15 15 15 5 0 6 10 3 21 -5 13 -3 19 3 15 5 -3 12
-14 15 -25z m236 -8 c-2 -1 5 -9 16 -18 19 -16 19 -16 -3 -5 -12 6 -20 15 -17
19 3 5 -2 12 -11 15 -8 3 -12 11 -8 17 4 8 10 5 17 -7 6 -11 9 -20 6 -21z
m836 27 c3 -5 1 -10 -4 -10 -6 0 -11 5 -11 10 0 6 2 10 4 10 3 0 8 -4 11 -10z
m-808 -22 c-3 -8 -6 -5 -6 6 -1 11 2 17 5 13 3 -3 4 -12 1 -19z m-757 2 c0 -5
-4 -10 -10 -10 -5 0 -10 5 -10 10 0 6 5 10 10 10 6 0 10 -4 10 -10z m35 0 c-3
-5 -11 -10 -16 -10 -6 0 -7 5 -4 10 3 6 11 10 16 10 6 0 7 -4 4 -10z m330 -12
c-19 -11 -30 -5 -21 11 4 6 14 7 22 4 15 -5 14 -7 -1 -15z m206 5 c12 -15 12
-16 -3 -10 -11 4 -18 2 -18 -5 0 -6 -3 -9 -6 -5 -6 6 2 37 9 37 3 0 11 -8 18
-17z m1179 7 c0 -5 -4 -10 -10 -10 -5 0 -10 5 -10 10 0 6 5 10 10 10 6 0 10
-4 10 -10z m-1797 -19 c-4 -16 -8 -17 -18 -8 -10 10 -10 13 4 19 9 4 17 7 18
7 0 1 -1 -8 -4 -18z m714 13 c-3 -3 -12 -4 -19 -1 -8 3 -5 6 6 6 11 1 17 -2
13 -5z m943 -4 c-13 -8 -12 -11 5 -25 20 -16 20 -16 -2 -6 -35 17 -45 14 -32
-10 9 -17 8 -20 -3 -17 -7 3 -13 11 -13 19 0 8 -8 13 -17 11 -9 -1 -19 2 -22
7 -3 5 6 8 20 6 15 -1 28 3 31 11 3 8 15 14 27 14 17 0 18 -2 6 -10z m-990
-10 c0 -5 -5 -10 -11 -10 -5 0 -7 5 -4 10 3 6 8 10 11 10 2 0 4 -4 4 -10z
m-620 -6 c0 -8 -19 -13 -24 -6 -3 5 1 9 9 9 8 0 15 -2 15 -3z m25 -4 c3 -5 1
-10 -4 -10 -6 0 -11 5 -11 10 0 6 2 10 4 10 3 0 8 -4 11 -10z m504 -23 c8 -10
7 -14 -4 -14 -8 0 -16 6 -19 14 -3 7 -2 13 3 13 5 0 14 -6 20 -13z m54 -12
c-7 -21 -12 -19 -10 4 0 11 5 18 9 15 4 -3 5 -11 1 -19z m111 -1 c3 -8 2 -12
-4 -9 -6 3 -10 10 -10 16 0 14 7 11 14 -7z m826 6 c0 -5 -4 -10 -10 -10 -5 0
-10 5 -10 10 0 6 5 10 10 10 6 0 10 -4 10 -10z m140 0 c0 -5 -10 -10 -22 -10
-19 0 -20 2 -8 10 19 13 30 13 30 0z m-1626 -16 c3 -8 2 -12 -4 -9 -6 3 -10
10 -10 16 0 14 7 11 14 -7z m1668 -24 l-9 -24 -5 22 c-4 12 -2 20 3 16 5 -3 9
3 10 13 0 10 3 13 5 7 3 -6 1 -21 -4 -34z m-942 16 c0 -2 -7 -7 -16 -10 -8 -3
-12 -2 -9 4 6 10 25 14 25 6z m-380 -10 c0 -2 -7 -6 -15 -10 -8 -3 -15 -1 -15
4 0 6 7 10 15 10 8 0 15 -2 15 -4z m888 -20 c15 5 15 4 2 -5 -23 -16 -30 -13
-29 12 1 16 3 17 6 5 3 -11 11 -15 21 -12z m67 14 c3 -5 1 -10 -4 -10 -6 0
-11 5 -11 10 0 6 2 10 4 10 3 0 8 -4 11 -10z m248 -11 c4 -16 3 -18 -9 -8 -7
6 -11 15 -8 20 8 13 11 11 17 -12z m-1378 -9 c-3 -5 -11 -10 -16 -10 -6 0 -7
5 -4 10 3 6 11 10 16 10 6 0 7 -4 4 -10z m999 -25 c-4 -8 -8 -15 -10 -15 -2 0
-4 7 -4 15 0 8 4 15 10 15 5 0 7 -7 4 -15z m-584 -57 c0 -12 -6 -9 -26 13 -19
22 -19 22 4 8 12 -8 22 -17 22 -21z m414 -16 c3 -5 -1 -9 -9 -9 -8 0 -12 4 -9
9 3 4 7 8 9 8 2 0 6 -4 9 -8z m575 -11 c7 -5 9 -11 5 -14 -5 -3 -15 1 -22 9
-14 16 -5 18 17 5z m-1028 -44 c-10 -9 -11 -8 -5 6 3 10 9 15 12 12 3 -3 0
-11 -7 -18z m769 -57 c0 -5 -5 -10 -11 -10 -5 0 -7 5 -4 10 3 6 8 10 11 10 2
0 4 -4 4 -10z"/>
<path d="M7505 3060 c-10 -11 -16 -20 -12 -20 3 0 12 -3 21 -6 9 -3 16 -1 16
6 0 6 -4 8 -10 5 -5 -3 -10 -1 -10 4 0 6 9 11 20 11 11 0 20 5 20 10 0 17 -26
11 -45 -10z"/>
<path d="M7650 3030 c-9 -6 -10 -10 -3 -10 6 0 15 5 18 10 8 12 4 12 -15 0z"/>
<path d="M7841 3014 c-21 -15 -22 -18 -6 -26 9 -6 20 -7 23 -3 4 4 1 10 -6 12
-10 4 -8 9 5 19 26 19 12 17 -16 -2z"/>
<path d="M7395 2959 c-4 -6 -5 -12 -2 -15 2 -3 7 2 10 11 7 17 1 20 -8 4z"/>
<path d="M7285 2940 c-3 -5 0 -7 8 -4 8 3 17 -2 21 -11 3 -9 11 -13 17 -10 6
5 4 12 -8 21 -22 16 -30 17 -38 4z"/>
<path d="M7820 2930 c6 -11 16 -20 22 -20 6 0 3 9 -7 20 -10 11 -20 20 -22 20
-2 0 1 -9 7 -20z"/>
<path d="M7256 2911 c-4 -7 -5 -15 -2 -18 9 -9 19 4 14 18 -4 11 -6 11 -12 0z"/>
<path d="M7295 2910 c4 -7 2 -16 -6 -21 -10 -6 -11 -9 -1 -9 6 0 12 -5 12 -11
0 -5 -4 -7 -10 -4 -5 3 -10 1 -10 -4 0 -14 11 -14 30 0 11 7 12 12 3 15 -7 3
-10 11 -7 19 3 7 0 16 -7 21 -8 5 -10 3 -4 -6z"/>
<path d="M7536 2785 c4 -8 10 -12 15 -9 11 6 2 24 -11 24 -5 0 -7 -7 -4 -15z"/>
<path d="M7744 2775 c8 -8 18 -15 22 -15 3 0 1 7 -6 15 -7 8 -17 15 -22 15 -5
0 -3 -7 6 -15z"/>
<path d="M7226 2752 c-2 -4 -1 -13 3 -20 4 -8 11 -5 19 8 10 16 10 20 -2 20
-8 0 -17 -4 -20 -8z"/>
<path d="M7695 2751 c-3 -2 -5 -9 -5 -15 0 -6 5 -4 10 4 8 13 10 12 10 -3 0
-10 4 -16 9 -12 5 3 12 1 16 -5 13 -21 24 -9 14 14 -10 22 -40 31 -54 17z"/>
<path d="M8020 2736 c0 -2 7 -7 16 -10 8 -3 12 -2 9 4 -6 10 -25 14 -25 6z"/>
<path d="M7885 2680 c3 -5 8 -10 11 -10 2 0 4 5 4 10 0 6 -5 10 -11 10 -5 0
-7 -4 -4 -10z"/>
<path d="M7820 2619 c0 -6 7 -8 16 -5 12 4 15 2 10 -9 -3 -8 -2 -15 3 -15 16
0 21 13 10 27 -14 16 -39 17 -39 2z"/>
<path d="M6908 963 c-12 -15 -11 -15 10 -4 15 8 22 8 22 1 0 -6 5 -8 10 -5 16
10 12 21 -9 22 -11 1 -26 -6 -33 -14z"/>
<path d="M6801 773 c-12 -13 -12 -17 0 -25 11 -7 11 -11 2 -15 -7 -2 -13 -12
-13 -21 0 -13 4 -11 16 6 9 13 13 29 10 37 -2 7 0 15 7 18 6 2 7 6 2 9 -6 3
-16 -1 -24 -9z"/>
<path d="M6095 2500 c-3 -5 -1 -10 4 -10 6 0 11 5 11 10 0 6 -2 10 -4 10 -3 0
-8 -4 -11 -10z"/>
<path d="M6160 2340 c0 -5 5 -10 10 -10 6 0 10 5 10 10 0 6 -4 10 -10 10 -5 0
-10 -4 -10 -10z"/>
<path d="M6248 2315 c-3 -14 -2 -25 3 -25 12 0 30 36 22 44 -12 12 -21 6 -25
-19z"/>
<path d="M6170 2315 c-9 -11 -9 -15 -1 -15 7 0 9 -4 6 -10 -3 -5 1 -10 10 -10
11 0 15 5 11 16 -4 9 -2 13 5 8 7 -4 10 -1 7 6 -6 20 -23 23 -38 5z"/>
<path d="M6206 2282 c-8 -13 3 -42 15 -42 11 0 11 21 0 39 -5 8 -11 9 -15 3z"/>
<path d="M5952 2250 c1 -32 12 -40 22 -15 3 8 1 15 -5 15 -6 0 -8 4 -4 9 3 5
1 12 -4 15 -5 4 -9 -7 -9 -24z"/>
<path d="M7040 2169 c0 -7 -12 -9 -30 -7 -16 3 -30 1 -30 -4 0 -4 8 -8 18 -8
14 0 14 -2 3 -9 -8 -5 -21 -7 -30 -4 -12 4 -13 3 -6 -5 8 -9 19 -9 43 0 18 7
32 16 32 21 0 4 4 6 9 2 5 -3 12 -1 15 4 3 5 -1 11 -9 15 -8 3 -15 1 -15 -5z"/>
</g>
</svg>
